<?xml version="1.0" encoding="UTF-8"?><svg xmlns="http://www.w3.org/2000/svg" viewBox="0 0 331.62 91.11"><g id="a"/><g id="b"><g id="c"><g><path d="M30.07,12.58H.12V5.1H10.52V.94h9.05V5.1h10.5v7.49Zm-10.66,23.25c4.11,0,8.68-.52,11.44-1.77v7.75c-2.76,1.25-7.23,1.77-11.65,1.77H.38v-7.75H10.67v-3.8c-5.36-.99-8.94-4-8.94-8.84,0-6.03,5.67-9.26,13.42-9.26s13.42,3.22,13.42,9.26c0,4.89-3.69,7.9-9.15,8.89v3.74Zm-4.26-10.3c3.12,0,5.2-.78,5.2-2.34s-2.08-2.34-5.2-2.34-5.2,.78-5.2,2.34,2.08,2.34,5.2,2.34Zm32.14,.05h-5.1v20.07h-8.79V1.25h8.79v15.81h5.1v8.53Z"/><path d="M50.3,25.9v-7.9c6.92-.83,11.6-7.59,11.75-16.54l8.84,.52c0,3.12-.52,6.08-1.51,8.84l11.96,8.06-4.84,6.03-10.66-7.44c-3.69,4.84-9.1,8.06-15.55,8.42Zm43.68,10.56c0,7.23-8.94,9.72-20.28,9.72s-20.28-2.5-20.28-9.72,8.94-9.72,20.28-9.72,20.28,2.5,20.28,9.72Zm-9.46,0c0-1.98-4.84-2.81-10.82-2.81s-10.82,.83-10.82,2.81,4.84,2.81,10.82,2.81,10.82-.78,10.82-2.81Zm.26-22.78h-8.01V5.82h8.01V1.25h8.79V26.1h-8.79V13.68Z"/><path d="M125.44,1.46h8.01V44.88h-8.01v-10.19h-4.58c-1.61,6.6-4.89,9.41-9.67,9.41-7.02,0-10.76-5.98-10.76-21.16S104.17,1.77,111.19,1.77c4.47,0,7.64,2.5,9.31,8.22h4.94V1.46Zm-11.54,21.48c0-9.2-.73-13.26-2.7-13.26s-2.7,4.06-2.7,13.26,.73,13.26,2.7,13.26,2.7-4.06,2.7-13.26Zm11.54,3.59v-8.37h-3.64c.1,1.46,.16,3.07,.16,4.78,0,1.25,0,2.44-.05,3.59h3.54ZM144.62,1.25V45.66h-8.16V1.25h8.16Z"/><path d="M177.28,24.91v1.92h15.5v11.7h-31.1v1.56h31.57v5.56h-40.15v-11.75h31.1v-1.56h-31.2v-5.51h15.55v-1.92h-18.1v-6.4h44.93v6.4h-18.1Zm-4.47-14.3c-5.1,4-12.74,6.45-21.06,6.6v-6.92c8.48-.42,16.8-4.21,18.25-10.3l8.89,1.56c-.31,1.3-.78,2.5-1.4,3.64l17.26,5.67-2.76,6.45-19.19-6.71Z"/><path d="M229.54,14.61c0,8.06-5.93,13.31-14.61,13.31s-14.61-5.25-14.61-13.31,5.93-13.31,14.61-13.31,14.61,5.3,14.61,13.31Zm-16.38,23.14h30.89v7.9h-39.83v-15.55h8.94v7.64Zm-4.11-23.14c0,3.85,2.5,5.98,5.88,5.98s5.88-2.13,5.88-5.98-2.5-5.98-5.88-5.98-5.88,2.13-5.88,5.98Zm34.37,19.5h-8.79V1.25h8.79V34.11Z"/><path d="M251.69,2.55h16.43c14.04,0,22.72,8.68,22.72,21.22s-8.68,21.16-22.72,21.16h-16.43V2.55Zm16.59,34.01c8.11,0,13.1-4.63,13.1-12.79s-4.99-12.84-13.1-12.84h-7.12v25.64h7.12Z"/><path d="M296.51,2.55h18.41c9.41,0,14.72,4.89,14.72,12.64,0,3.02-2.03,6.45-4.94,7.54,4.06,1.3,6.92,5.25,6.92,9.36,0,7.85-5.62,12.84-15.13,12.84h-19.97V2.55Zm17.99,17.16c3.59,0,5.67-1.56,5.67-4.52s-2.08-4.58-5.67-4.58h-8.53v9.1h8.53Zm1.56,17.16c3.74,0,6.08-1.66,6.08-4.78s-2.34-4.78-6.08-4.78h-10.09v9.57h10.09Z"/><path d="M19.85,74.06c0,10.57-4.1,15.48-9.91,15.48S0,84.63,0,74.06s4.1-15.48,9.95-15.48,9.91,4.92,9.91,15.48Zm-3.86,0c0-8.42-2.61-11.93-6.04-11.93s-6.08,3.51-6.08,11.93,2.61,11.93,6.08,11.93,6.04-3.47,6.04-11.93Zm17.79,.94h-4.68v16.11h-3.86V57.8h3.86v13.49h4.68v3.71Z"/><path d="M51.95,85.57c3.16,0,6.59-.62,8.62-1.6v3.55c-2.03,1.01-5.42,1.6-8.62,1.6h-13.57v-30.11h19.58v3.55h-15.72v9.48h15.13v3.55h-15.13v9.98h9.71Zm15.6-27.77v33.31h-3.86V57.8h3.86Z"/><path d="M107.25,85.88v3.63h-33.27v-3.63h33.27Zm-32.6-7.14v-3.67c7.22,0,13.85-7.8,15.56-17.12l3.98,.7c-.47,2.57-1.25,5.03-2.34,7.25l14.66,9.87-2.11,3.08-14.24-9.87c-3.74,5.89-9.4,9.75-15.52,9.75Z"/><path d="M144.77,85.96v3.55h-33.27v-3.55h33.27Zm-1.68-5.66h-29.37v-21.29h28.86v3.47h-25v5.46h24.57v3.39h-24.57v5.5h25.51v3.47Z"/><path d="M163.8,85.57c3.16,0,6.59-.58,8.62-1.56v3.51c-2.03,1.01-5.5,1.6-8.7,1.6h-13.14v-17.08h14.55v-9.48h-14.63v-3.55h18.49v16.58h-14.59v9.98h9.4Zm20.05-10.57h-4.68v16.11h-3.86V57.8h3.86v13.49h4.68v3.71Z"/><path d="M187.94,74.06c0-10.57,4.17-15.48,10.1-15.48s10.06,4.92,10.06,15.48-4.17,15.48-10.06,15.48-10.1-4.91-10.1-15.48Zm16.3,0c0-8.42-2.73-11.93-6.2-11.93s-6.24,3.51-6.24,11.93,2.69,11.93,6.24,11.93,6.2-3.47,6.2-11.93Zm9.52-16.26h3.9v33.31h-3.9V57.8Z"/><path d="M257.32,85.88v3.63h-33.27v-3.63h33.27Zm-2.22-6.86h-28.86v-20.24h3.82v6.44h21.22v-6.44h3.82v20.24Zm-3.82-3.47v-6.9h-21.22v6.9h21.22Z"/><path d="M276.08,85.57c3.16,0,6.59-.62,8.62-1.56v3.51c-2.03,1.01-5.58,1.6-8.81,1.6h-12.56v-16.97h13.22v-9.59h-13.3v-3.55h17.12v16.69h-13.22v9.87h8.93Zm16.85-27.77v33.31h-3.9v-16.07h-6.4v-3.74h6.4v-13.49h3.9Z"/><path d="M301,72.03h14.9v-9.48h-14.98v-3.55h18.84v16.58h-14.9v9.98h9.75c3.16,0,6.59-.62,8.62-1.6v3.55c-2.03,1.01-5.5,1.6-8.74,1.6h-13.5v-17.08Zm25.31-14.24h3.86v33.31h-3.86V57.8Z"/></g></g></g></svg>